<mxfile host="Electron" modified="2023-12-13T19:27:53.738Z" agent="Mozilla/5.0 (Windows NT 10.0; Win64; x64) AppleWebKit/537.36 (KHTML, like Gecko) draw.io/22.1.2 Chrome/114.0.5735.289 Electron/25.9.4 Safari/537.36" etag="YNEMY3n6CO-y9SgyvNvc" version="22.1.2" type="device">
  <diagram name="Page-1" id="vqsGJL-SD46lGoLcBVYe">
    <mxGraphModel dx="2464" dy="1990" grid="1" gridSize="10" guides="1" tooltips="1" connect="1" arrows="1" fold="1" page="1" pageScale="2" pageWidth="850" pageHeight="1100" math="0" shadow="0">
      <root>
        <mxCell id="0" />
        <mxCell id="1" parent="0" />
        <mxCell id="K7loId0zBNw9NE6-Rvp8-5" style="edgeStyle=orthogonalEdgeStyle;rounded=0;orthogonalLoop=1;jettySize=auto;html=1;entryX=0.5;entryY=0;entryDx=0;entryDy=0;" parent="1" source="K7loId0zBNw9NE6-Rvp8-1" target="K7loId0zBNw9NE6-Rvp8-3" edge="1">
          <mxGeometry relative="1" as="geometry" />
        </mxCell>
        <mxCell id="K7loId0zBNw9NE6-Rvp8-1" value="rdy_data_in" style="rounded=0;whiteSpace=wrap;html=1;align=left;" parent="1" vertex="1">
          <mxGeometry x="320" y="80" width="120" height="60" as="geometry" />
        </mxCell>
        <mxCell id="K7loId0zBNw9NE6-Rvp8-2" value="waiting" style="text;html=1;strokeColor=none;fillColor=none;align=center;verticalAlign=middle;whiteSpace=wrap;rounded=0;" parent="1" vertex="1">
          <mxGeometry x="320" y="60" width="60" height="20" as="geometry" />
        </mxCell>
        <mxCell id="K7loId0zBNw9NE6-Rvp8-4" style="edgeStyle=orthogonalEdgeStyle;rounded=0;orthogonalLoop=1;jettySize=auto;html=1;entryX=0;entryY=0.5;entryDx=0;entryDy=0;" parent="1" source="K7loId0zBNw9NE6-Rvp8-3" target="K7loId0zBNw9NE6-Rvp8-1" edge="1">
          <mxGeometry relative="1" as="geometry">
            <Array as="points">
              <mxPoint x="290" y="240" />
              <mxPoint x="290" y="110" />
            </Array>
          </mxGeometry>
        </mxCell>
        <mxCell id="K7loId0zBNw9NE6-Rvp8-7" style="edgeStyle=orthogonalEdgeStyle;rounded=0;orthogonalLoop=1;jettySize=auto;html=1;entryX=0.5;entryY=0;entryDx=0;entryDy=0;" parent="1" source="K7loId0zBNw9NE6-Rvp8-3" target="K7loId0zBNw9NE6-Rvp8-6" edge="1">
          <mxGeometry relative="1" as="geometry" />
        </mxCell>
        <mxCell id="K7loId0zBNw9NE6-Rvp8-3" value="en" style="rhombus;whiteSpace=wrap;html=1;" parent="1" vertex="1">
          <mxGeometry x="340" y="200" width="80" height="80" as="geometry" />
        </mxCell>
        <mxCell id="K7loId0zBNw9NE6-Rvp8-8" style="edgeStyle=orthogonalEdgeStyle;rounded=0;orthogonalLoop=1;jettySize=auto;html=1;entryX=0;entryY=0.25;entryDx=0;entryDy=0;" parent="1" source="K7loId0zBNw9NE6-Rvp8-6" target="K7loId0zBNw9NE6-Rvp8-1" edge="1">
          <mxGeometry relative="1" as="geometry">
            <Array as="points">
              <mxPoint x="250" y="370" />
              <mxPoint x="250" y="95" />
            </Array>
          </mxGeometry>
        </mxCell>
        <mxCell id="K7loId0zBNw9NE6-Rvp8-13" style="edgeStyle=orthogonalEdgeStyle;rounded=0;orthogonalLoop=1;jettySize=auto;html=1;entryX=0.5;entryY=0;entryDx=0;entryDy=0;" parent="1" source="K7loId0zBNw9NE6-Rvp8-6" target="K7loId0zBNw9NE6-Rvp8-12" edge="1">
          <mxGeometry relative="1" as="geometry" />
        </mxCell>
        <mxCell id="K7loId0zBNw9NE6-Rvp8-6" value="rd_data_in" style="rhombus;whiteSpace=wrap;html=1;" parent="1" vertex="1">
          <mxGeometry x="340" y="330" width="80" height="80" as="geometry" />
        </mxCell>
        <mxCell id="K7loId0zBNw9NE6-Rvp8-9" value="0" style="text;html=1;align=center;verticalAlign=middle;resizable=0;points=[];autosize=1;strokeColor=none;fillColor=none;" parent="1" vertex="1">
          <mxGeometry x="310" y="210" width="30" height="30" as="geometry" />
        </mxCell>
        <mxCell id="K7loId0zBNw9NE6-Rvp8-10" value="0" style="text;html=1;align=center;verticalAlign=middle;resizable=0;points=[];autosize=1;strokeColor=none;fillColor=none;" parent="1" vertex="1">
          <mxGeometry x="310" y="340" width="30" height="30" as="geometry" />
        </mxCell>
        <mxCell id="K7loId0zBNw9NE6-Rvp8-11" value="1" style="text;html=1;align=center;verticalAlign=middle;resizable=0;points=[];autosize=1;strokeColor=none;fillColor=none;" parent="1" vertex="1">
          <mxGeometry x="380" y="290" width="30" height="30" as="geometry" />
        </mxCell>
        <mxCell id="K7loId0zBNw9NE6-Rvp8-16" style="edgeStyle=orthogonalEdgeStyle;rounded=0;orthogonalLoop=1;jettySize=auto;html=1;" parent="1" source="K7loId0zBNw9NE6-Rvp8-12" target="K7loId0zBNw9NE6-Rvp8-14" edge="1">
          <mxGeometry relative="1" as="geometry" />
        </mxCell>
        <mxCell id="K7loId0zBNw9NE6-Rvp8-12" value="frame_bytes_read++&lt;br&gt;total_bytes_read++" style="ellipse;whiteSpace=wrap;html=1;" parent="1" vertex="1">
          <mxGeometry x="320" y="440" width="120" height="80" as="geometry" />
        </mxCell>
        <mxCell id="K7loId0zBNw9NE6-Rvp8-20" style="edgeStyle=orthogonalEdgeStyle;rounded=0;orthogonalLoop=1;jettySize=auto;html=1;entryX=0.5;entryY=0;entryDx=0;entryDy=0;" parent="1" source="K7loId0zBNw9NE6-Rvp8-14" target="K7loId0zBNw9NE6-Rvp8-18" edge="1">
          <mxGeometry relative="1" as="geometry" />
        </mxCell>
        <mxCell id="K7loId0zBNw9NE6-Rvp8-14" value="" style="rounded=0;whiteSpace=wrap;html=1;align=left;" parent="1" vertex="1">
          <mxGeometry x="320" y="580" width="120" height="60" as="geometry" />
        </mxCell>
        <mxCell id="K7loId0zBNw9NE6-Rvp8-15" value="reading" style="text;html=1;strokeColor=none;fillColor=none;align=center;verticalAlign=middle;whiteSpace=wrap;rounded=0;" parent="1" vertex="1">
          <mxGeometry x="320" y="560" width="60" height="20" as="geometry" />
        </mxCell>
        <mxCell id="K7loId0zBNw9NE6-Rvp8-24" style="edgeStyle=orthogonalEdgeStyle;rounded=0;orthogonalLoop=1;jettySize=auto;html=1;entryX=0.5;entryY=0;entryDx=0;entryDy=0;" parent="1" source="K7loId0zBNw9NE6-Rvp8-18" target="K7loId0zBNw9NE6-Rvp8-23" edge="1">
          <mxGeometry relative="1" as="geometry" />
        </mxCell>
        <mxCell id="K7loId0zBNw9NE6-Rvp8-18" value="frame_bytes_read&lt;br&gt;&amp;nbsp;== 32" style="rhombus;whiteSpace=wrap;html=1;" parent="1" vertex="1">
          <mxGeometry x="318" y="690" width="125" height="120" as="geometry" />
        </mxCell>
        <mxCell id="K7loId0zBNw9NE6-Rvp8-22" value="0" style="text;html=1;align=center;verticalAlign=middle;resizable=0;points=[];autosize=1;strokeColor=none;fillColor=none;" parent="1" vertex="1">
          <mxGeometry x="290" y="710" width="30" height="30" as="geometry" />
        </mxCell>
        <mxCell id="K7loId0zBNw9NE6-Rvp8-25" style="edgeStyle=orthogonalEdgeStyle;rounded=0;orthogonalLoop=1;jettySize=auto;html=1;entryX=0;entryY=0.25;entryDx=0;entryDy=0;" parent="1" source="K7loId0zBNw9NE6-Rvp8-23" target="K7loId0zBNw9NE6-Rvp8-14" edge="1">
          <mxGeometry relative="1" as="geometry">
            <Array as="points">
              <mxPoint x="80" y="920" />
              <mxPoint x="80" y="595" />
            </Array>
          </mxGeometry>
        </mxCell>
        <mxCell id="K7loId0zBNw9NE6-Rvp8-29" style="edgeStyle=orthogonalEdgeStyle;rounded=0;orthogonalLoop=1;jettySize=auto;html=1;entryX=0.5;entryY=0;entryDx=0;entryDy=0;" parent="1" source="K7loId0zBNw9NE6-Rvp8-23" target="K7loId0zBNw9NE6-Rvp8-28" edge="1">
          <mxGeometry relative="1" as="geometry" />
        </mxCell>
        <mxCell id="K7loId0zBNw9NE6-Rvp8-23" value="decode_data_rdy" style="rhombus;whiteSpace=wrap;html=1;" parent="1" vertex="1">
          <mxGeometry x="324" y="870" width="112" height="100" as="geometry" />
        </mxCell>
        <mxCell id="K7loId0zBNw9NE6-Rvp8-26" value="0" style="text;html=1;align=center;verticalAlign=middle;resizable=0;points=[];autosize=1;strokeColor=none;fillColor=none;" parent="1" vertex="1">
          <mxGeometry x="294" y="890" width="30" height="30" as="geometry" />
        </mxCell>
        <mxCell id="K7loId0zBNw9NE6-Rvp8-27" value="1" style="text;html=1;align=center;verticalAlign=middle;resizable=0;points=[];autosize=1;strokeColor=none;fillColor=none;" parent="1" vertex="1">
          <mxGeometry x="380" y="830" width="30" height="30" as="geometry" />
        </mxCell>
        <mxCell id="K7loId0zBNw9NE6-Rvp8-48" style="edgeStyle=orthogonalEdgeStyle;rounded=0;orthogonalLoop=1;jettySize=auto;html=1;entryX=0.5;entryY=1;entryDx=0;entryDy=0;" parent="1" source="K7loId0zBNw9NE6-Rvp8-28" target="K7loId0zBNw9NE6-Rvp8-33" edge="1">
          <mxGeometry relative="1" as="geometry" />
        </mxCell>
        <mxCell id="K7loId0zBNw9NE6-Rvp8-50" style="edgeStyle=orthogonalEdgeStyle;rounded=0;orthogonalLoop=1;jettySize=auto;html=1;entryX=0.5;entryY=0;entryDx=0;entryDy=0;" parent="1" source="K7loId0zBNw9NE6-Rvp8-28" target="K7loId0zBNw9NE6-Rvp8-49" edge="1">
          <mxGeometry relative="1" as="geometry" />
        </mxCell>
        <mxCell id="K7loId0zBNw9NE6-Rvp8-28" value="total_bytes_read&lt;br&gt;&amp;lt;= P1_bytes" style="rhombus;whiteSpace=wrap;html=1;" parent="1" vertex="1">
          <mxGeometry x="324.5" y="1000" width="112" height="100" as="geometry" />
        </mxCell>
        <mxCell id="K7loId0zBNw9NE6-Rvp8-31" style="edgeStyle=orthogonalEdgeStyle;rounded=0;orthogonalLoop=1;jettySize=auto;html=1;" parent="1" edge="1">
          <mxGeometry relative="1" as="geometry">
            <mxPoint x="318" y="749" as="sourcePoint" />
            <mxPoint x="200" y="719" as="targetPoint" />
            <Array as="points">
              <mxPoint x="200" y="749" />
            </Array>
          </mxGeometry>
        </mxCell>
        <mxCell id="K7loId0zBNw9NE6-Rvp8-36" style="edgeStyle=orthogonalEdgeStyle;rounded=0;orthogonalLoop=1;jettySize=auto;html=1;" parent="1" source="K7loId0zBNw9NE6-Rvp8-30" target="K7loId0zBNw9NE6-Rvp8-14" edge="1">
          <mxGeometry relative="1" as="geometry">
            <Array as="points">
              <mxPoint x="200" y="610" />
            </Array>
          </mxGeometry>
        </mxCell>
        <mxCell id="K7loId0zBNw9NE6-Rvp8-30" value="frame_bytes_read++&lt;br&gt;total_bytes_read++" style="ellipse;whiteSpace=wrap;html=1;" parent="1" vertex="1">
          <mxGeometry x="140" y="640" width="120" height="80" as="geometry" />
        </mxCell>
        <mxCell id="K7loId0zBNw9NE6-Rvp8-61" style="edgeStyle=orthogonalEdgeStyle;rounded=0;orthogonalLoop=1;jettySize=auto;html=1;entryX=0.5;entryY=1;entryDx=0;entryDy=0;" parent="1" source="K7loId0zBNw9NE6-Rvp8-33" target="K7loId0zBNw9NE6-Rvp8-58" edge="1">
          <mxGeometry relative="1" as="geometry" />
        </mxCell>
        <mxCell id="K7loId0zBNw9NE6-Rvp8-33" value="storage_wr_en" style="rounded=0;whiteSpace=wrap;html=1;align=left;" parent="1" vertex="1">
          <mxGeometry x="765" y="800" width="120" height="60" as="geometry" />
        </mxCell>
        <mxCell id="K7loId0zBNw9NE6-Rvp8-34" value="storing_p1" style="text;html=1;strokeColor=none;fillColor=none;align=center;verticalAlign=middle;whiteSpace=wrap;rounded=0;" parent="1" vertex="1">
          <mxGeometry x="765" y="780" width="60" height="20" as="geometry" />
        </mxCell>
        <mxCell id="K7loId0zBNw9NE6-Rvp8-37" value="1" style="text;html=1;align=center;verticalAlign=middle;resizable=0;points=[];autosize=1;strokeColor=none;fillColor=none;" parent="1" vertex="1">
          <mxGeometry x="380" y="970" width="30" height="30" as="geometry" />
        </mxCell>
        <mxCell id="K7loId0zBNw9NE6-Rvp8-97" style="edgeStyle=orthogonalEdgeStyle;rounded=0;orthogonalLoop=1;jettySize=auto;html=1;entryX=0.5;entryY=1;entryDx=0;entryDy=0;" parent="1" source="K7loId0zBNw9NE6-Rvp8-42" target="K7loId0zBNw9NE6-Rvp8-81" edge="1">
          <mxGeometry relative="1" as="geometry" />
        </mxCell>
        <mxCell id="K7loId0zBNw9NE6-Rvp8-42" value="storage_wr_en" style="rounded=0;whiteSpace=wrap;html=1;align=left;" parent="1" vertex="1">
          <mxGeometry x="1165" y="800" width="120" height="60" as="geometry" />
        </mxCell>
        <mxCell id="K7loId0zBNw9NE6-Rvp8-43" value="storing_p2" style="text;html=1;strokeColor=none;fillColor=none;align=center;verticalAlign=middle;whiteSpace=wrap;rounded=0;" parent="1" vertex="1">
          <mxGeometry x="1165" y="780" width="60" height="20" as="geometry" />
        </mxCell>
        <mxCell id="K7loId0zBNw9NE6-Rvp8-119" style="edgeStyle=orthogonalEdgeStyle;rounded=0;orthogonalLoop=1;jettySize=auto;html=1;entryX=0.5;entryY=1;entryDx=0;entryDy=0;" parent="1" source="K7loId0zBNw9NE6-Rvp8-44" target="K7loId0zBNw9NE6-Rvp8-103" edge="1">
          <mxGeometry relative="1" as="geometry" />
        </mxCell>
        <mxCell id="K7loId0zBNw9NE6-Rvp8-44" value="storage_wr_en" style="rounded=0;whiteSpace=wrap;html=1;align=left;" parent="1" vertex="1">
          <mxGeometry x="1575" y="800" width="120" height="60" as="geometry" />
        </mxCell>
        <mxCell id="K7loId0zBNw9NE6-Rvp8-45" value="storing_p3" style="text;html=1;strokeColor=none;fillColor=none;align=center;verticalAlign=middle;whiteSpace=wrap;rounded=0;" parent="1" vertex="1">
          <mxGeometry x="1576" y="780" width="60" height="20" as="geometry" />
        </mxCell>
        <mxCell id="K7loId0zBNw9NE6-Rvp8-54" style="edgeStyle=orthogonalEdgeStyle;rounded=0;orthogonalLoop=1;jettySize=auto;html=1;entryX=0.5;entryY=1;entryDx=0;entryDy=0;" parent="1" source="K7loId0zBNw9NE6-Rvp8-49" target="K7loId0zBNw9NE6-Rvp8-42" edge="1">
          <mxGeometry relative="1" as="geometry" />
        </mxCell>
        <mxCell id="K7loId0zBNw9NE6-Rvp8-55" style="edgeStyle=orthogonalEdgeStyle;rounded=0;orthogonalLoop=1;jettySize=auto;html=1;entryX=0.5;entryY=1;entryDx=0;entryDy=0;" parent="1" source="K7loId0zBNw9NE6-Rvp8-49" target="K7loId0zBNw9NE6-Rvp8-44" edge="1">
          <mxGeometry relative="1" as="geometry">
            <Array as="points">
              <mxPoint x="380" y="1280" />
              <mxPoint x="1635" y="1280" />
            </Array>
          </mxGeometry>
        </mxCell>
        <mxCell id="K7loId0zBNw9NE6-Rvp8-49" value="total_bytes_read&lt;br&gt;&amp;lt;= P1_bytes&lt;br&gt;+ P2_bytes" style="rhombus;whiteSpace=wrap;html=1;" parent="1" vertex="1">
          <mxGeometry x="317" y="1130" width="126" height="120" as="geometry" />
        </mxCell>
        <mxCell id="K7loId0zBNw9NE6-Rvp8-51" value="1" style="text;html=1;align=center;verticalAlign=middle;resizable=0;points=[];autosize=1;strokeColor=none;fillColor=none;" parent="1" vertex="1">
          <mxGeometry x="440" y="1020" width="30" height="30" as="geometry" />
        </mxCell>
        <mxCell id="K7loId0zBNw9NE6-Rvp8-52" value="0" style="text;html=1;align=center;verticalAlign=middle;resizable=0;points=[];autosize=1;strokeColor=none;fillColor=none;" parent="1" vertex="1">
          <mxGeometry x="380" y="1100" width="30" height="30" as="geometry" />
        </mxCell>
        <mxCell id="K7loId0zBNw9NE6-Rvp8-53" value="1" style="text;html=1;align=center;verticalAlign=middle;resizable=0;points=[];autosize=1;strokeColor=none;fillColor=none;" parent="1" vertex="1">
          <mxGeometry x="450" y="1160" width="30" height="30" as="geometry" />
        </mxCell>
        <mxCell id="K7loId0zBNw9NE6-Rvp8-56" value="0" style="text;html=1;align=center;verticalAlign=middle;resizable=0;points=[];autosize=1;strokeColor=none;fillColor=none;" parent="1" vertex="1">
          <mxGeometry x="390" y="1250" width="30" height="30" as="geometry" />
        </mxCell>
        <mxCell id="K7loId0zBNw9NE6-Rvp8-59" style="edgeStyle=orthogonalEdgeStyle;rounded=0;orthogonalLoop=1;jettySize=auto;html=1;entryX=1;entryY=0.75;entryDx=0;entryDy=0;" parent="1" source="K7loId0zBNw9NE6-Rvp8-58" target="K7loId0zBNw9NE6-Rvp8-1" edge="1">
          <mxGeometry relative="1" as="geometry">
            <mxPoint x="640" y="140" as="targetPoint" />
            <Array as="points">
              <mxPoint x="500" y="660" />
              <mxPoint x="500" y="125" />
            </Array>
          </mxGeometry>
        </mxCell>
        <mxCell id="K7loId0zBNw9NE6-Rvp8-74" style="edgeStyle=orthogonalEdgeStyle;rounded=0;orthogonalLoop=1;jettySize=auto;html=1;entryX=0.5;entryY=1;entryDx=0;entryDy=0;" parent="1" source="K7loId0zBNw9NE6-Rvp8-58" target="K7loId0zBNw9NE6-Rvp8-62" edge="1">
          <mxGeometry relative="1" as="geometry" />
        </mxCell>
        <mxCell id="K7loId0zBNw9NE6-Rvp8-58" value="storage_wr_done" style="rhombus;whiteSpace=wrap;html=1;" parent="1" vertex="1">
          <mxGeometry x="763" y="600" width="125" height="120" as="geometry" />
        </mxCell>
        <mxCell id="K7loId0zBNw9NE6-Rvp8-60" value="1" style="text;html=1;align=center;verticalAlign=middle;resizable=0;points=[];autosize=1;strokeColor=none;fillColor=none;" parent="1" vertex="1">
          <mxGeometry x="735" y="630" width="30" height="30" as="geometry" />
        </mxCell>
        <mxCell id="K7loId0zBNw9NE6-Rvp8-71" style="edgeStyle=orthogonalEdgeStyle;rounded=0;orthogonalLoop=1;jettySize=auto;html=1;entryX=0.5;entryY=1;entryDx=0;entryDy=0;" parent="1" source="K7loId0zBNw9NE6-Rvp8-62" target="K7loId0zBNw9NE6-Rvp8-70" edge="1">
          <mxGeometry relative="1" as="geometry" />
        </mxCell>
        <mxCell id="K7loId0zBNw9NE6-Rvp8-73" style="edgeStyle=orthogonalEdgeStyle;rounded=0;orthogonalLoop=1;jettySize=auto;html=1;entryX=0.5;entryY=1;entryDx=0;entryDy=0;" parent="1" source="K7loId0zBNw9NE6-Rvp8-62" target="K7loId0zBNw9NE6-Rvp8-63" edge="1">
          <mxGeometry relative="1" as="geometry" />
        </mxCell>
        <mxCell id="K7loId0zBNw9NE6-Rvp8-62" value="col_idx == N-O-1" style="rhombus;whiteSpace=wrap;html=1;" parent="1" vertex="1">
          <mxGeometry x="763" y="450" width="125" height="120" as="geometry" />
        </mxCell>
        <mxCell id="K7loId0zBNw9NE6-Rvp8-66" style="edgeStyle=orthogonalEdgeStyle;rounded=0;orthogonalLoop=1;jettySize=auto;html=1;entryX=0.5;entryY=1;entryDx=0;entryDy=0;" parent="1" source="K7loId0zBNw9NE6-Rvp8-63" target="K7loId0zBNw9NE6-Rvp8-64" edge="1">
          <mxGeometry relative="1" as="geometry" />
        </mxCell>
        <mxCell id="K7loId0zBNw9NE6-Rvp8-68" style="edgeStyle=orthogonalEdgeStyle;rounded=0;orthogonalLoop=1;jettySize=auto;html=1;entryX=0.5;entryY=1;entryDx=0;entryDy=0;" parent="1" source="K7loId0zBNw9NE6-Rvp8-63" target="K7loId0zBNw9NE6-Rvp8-67" edge="1">
          <mxGeometry relative="1" as="geometry" />
        </mxCell>
        <mxCell id="K7loId0zBNw9NE6-Rvp8-63" value="row_idx == N-O-1" style="rhombus;whiteSpace=wrap;html=1;" parent="1" vertex="1">
          <mxGeometry x="763" y="270" width="125" height="120" as="geometry" />
        </mxCell>
        <mxCell id="K7loId0zBNw9NE6-Rvp8-65" style="edgeStyle=orthogonalEdgeStyle;rounded=0;orthogonalLoop=1;jettySize=auto;html=1;entryX=1;entryY=0.25;entryDx=0;entryDy=0;" parent="1" source="K7loId0zBNw9NE6-Rvp8-64" target="K7loId0zBNw9NE6-Rvp8-1" edge="1">
          <mxGeometry relative="1" as="geometry">
            <Array as="points">
              <mxPoint x="823" y="95" />
            </Array>
          </mxGeometry>
        </mxCell>
        <mxCell id="K7loId0zBNw9NE6-Rvp8-64" value="col_idx = N-O&lt;br&gt;row_idx = 0" style="ellipse;whiteSpace=wrap;html=1;" parent="1" vertex="1">
          <mxGeometry x="765" y="150" width="120" height="80" as="geometry" />
        </mxCell>
        <mxCell id="K7loId0zBNw9NE6-Rvp8-69" style="edgeStyle=orthogonalEdgeStyle;rounded=0;orthogonalLoop=1;jettySize=auto;html=1;exitX=0.5;exitY=0;exitDx=0;exitDy=0;entryX=1;entryY=0.25;entryDx=0;entryDy=0;" parent="1" source="K7loId0zBNw9NE6-Rvp8-67" target="K7loId0zBNw9NE6-Rvp8-1" edge="1">
          <mxGeometry relative="1" as="geometry" />
        </mxCell>
        <mxCell id="K7loId0zBNw9NE6-Rvp8-67" value="col_idx=row_idx+1&lt;br&gt;row_idx=row_idx+1" style="ellipse;whiteSpace=wrap;html=1;" parent="1" vertex="1">
          <mxGeometry x="630" y="210" width="120" height="80" as="geometry" />
        </mxCell>
        <mxCell id="K7loId0zBNw9NE6-Rvp8-72" style="edgeStyle=orthogonalEdgeStyle;rounded=0;orthogonalLoop=1;jettySize=auto;html=1;entryX=1;entryY=0.25;entryDx=0;entryDy=0;" parent="1" source="K7loId0zBNw9NE6-Rvp8-70" target="K7loId0zBNw9NE6-Rvp8-1" edge="1">
          <mxGeometry relative="1" as="geometry">
            <Array as="points">
              <mxPoint x="610" y="95" />
            </Array>
          </mxGeometry>
        </mxCell>
        <mxCell id="K7loId0zBNw9NE6-Rvp8-70" value="col_idx++" style="ellipse;whiteSpace=wrap;html=1;" parent="1" vertex="1">
          <mxGeometry x="550" y="410" width="120" height="80" as="geometry" />
        </mxCell>
        <mxCell id="K7loId0zBNw9NE6-Rvp8-75" value="0" style="text;html=1;align=center;verticalAlign=middle;resizable=0;points=[];autosize=1;strokeColor=none;fillColor=none;" parent="1" vertex="1">
          <mxGeometry x="825" y="580" width="30" height="30" as="geometry" />
        </mxCell>
        <mxCell id="K7loId0zBNw9NE6-Rvp8-76" value="0" style="text;html=1;align=center;verticalAlign=middle;resizable=0;points=[];autosize=1;strokeColor=none;fillColor=none;" parent="1" vertex="1">
          <mxGeometry x="735" y="480" width="30" height="30" as="geometry" />
        </mxCell>
        <mxCell id="K7loId0zBNw9NE6-Rvp8-77" value="0" style="text;html=1;align=center;verticalAlign=middle;resizable=0;points=[];autosize=1;strokeColor=none;fillColor=none;" parent="1" vertex="1">
          <mxGeometry x="730" y="300" width="30" height="30" as="geometry" />
        </mxCell>
        <mxCell id="K7loId0zBNw9NE6-Rvp8-78" value="1" style="text;html=1;align=center;verticalAlign=middle;resizable=0;points=[];autosize=1;strokeColor=none;fillColor=none;" parent="1" vertex="1">
          <mxGeometry x="825" y="420" width="30" height="30" as="geometry" />
        </mxCell>
        <mxCell id="K7loId0zBNw9NE6-Rvp8-79" value="1" style="text;html=1;align=center;verticalAlign=middle;resizable=0;points=[];autosize=1;strokeColor=none;fillColor=none;" parent="1" vertex="1">
          <mxGeometry x="825" y="240" width="30" height="30" as="geometry" />
        </mxCell>
        <mxCell id="K7loId0zBNw9NE6-Rvp8-80" style="edgeStyle=orthogonalEdgeStyle;rounded=0;orthogonalLoop=1;jettySize=auto;html=1;entryX=0.5;entryY=1;entryDx=0;entryDy=0;" parent="1" source="K7loId0zBNw9NE6-Rvp8-81" target="K7loId0zBNw9NE6-Rvp8-85" edge="1">
          <mxGeometry relative="1" as="geometry" />
        </mxCell>
        <mxCell id="K7loId0zBNw9NE6-Rvp8-98" style="edgeStyle=orthogonalEdgeStyle;rounded=0;orthogonalLoop=1;jettySize=auto;html=1;entryX=1;entryY=0.25;entryDx=0;entryDy=0;" parent="1" source="K7loId0zBNw9NE6-Rvp8-81" target="K7loId0zBNw9NE6-Rvp8-1" edge="1">
          <mxGeometry relative="1" as="geometry">
            <Array as="points">
              <mxPoint x="940" y="660" />
              <mxPoint x="940" y="95" />
            </Array>
          </mxGeometry>
        </mxCell>
        <mxCell id="K7loId0zBNw9NE6-Rvp8-81" value="storage_wr_done" style="rhombus;whiteSpace=wrap;html=1;" parent="1" vertex="1">
          <mxGeometry x="1163" y="600" width="125" height="120" as="geometry" />
        </mxCell>
        <mxCell id="K7loId0zBNw9NE6-Rvp8-82" value="1" style="text;html=1;align=center;verticalAlign=middle;resizable=0;points=[];autosize=1;strokeColor=none;fillColor=none;" parent="1" vertex="1">
          <mxGeometry x="1150" y="620" width="30" height="30" as="geometry" />
        </mxCell>
        <mxCell id="K7loId0zBNw9NE6-Rvp8-83" style="edgeStyle=orthogonalEdgeStyle;rounded=0;orthogonalLoop=1;jettySize=auto;html=1;entryX=0.5;entryY=1;entryDx=0;entryDy=0;" parent="1" source="K7loId0zBNw9NE6-Rvp8-85" target="K7loId0zBNw9NE6-Rvp8-91" edge="1">
          <mxGeometry relative="1" as="geometry" />
        </mxCell>
        <mxCell id="K7loId0zBNw9NE6-Rvp8-84" style="edgeStyle=orthogonalEdgeStyle;rounded=0;orthogonalLoop=1;jettySize=auto;html=1;entryX=0.5;entryY=1;entryDx=0;entryDy=0;" parent="1" source="K7loId0zBNw9NE6-Rvp8-85" target="K7loId0zBNw9NE6-Rvp8-88" edge="1">
          <mxGeometry relative="1" as="geometry" />
        </mxCell>
        <mxCell id="K7loId0zBNw9NE6-Rvp8-85" value="col_idx == N-1" style="rhombus;whiteSpace=wrap;html=1;" parent="1" vertex="1">
          <mxGeometry x="1163" y="450" width="125" height="120" as="geometry" />
        </mxCell>
        <mxCell id="K7loId0zBNw9NE6-Rvp8-86" style="edgeStyle=orthogonalEdgeStyle;rounded=0;orthogonalLoop=1;jettySize=auto;html=1;entryX=0.5;entryY=1;entryDx=0;entryDy=0;" parent="1" source="K7loId0zBNw9NE6-Rvp8-88" target="K7loId0zBNw9NE6-Rvp8-89" edge="1">
          <mxGeometry relative="1" as="geometry" />
        </mxCell>
        <mxCell id="K7loId0zBNw9NE6-Rvp8-87" style="edgeStyle=orthogonalEdgeStyle;rounded=0;orthogonalLoop=1;jettySize=auto;html=1;entryX=0.5;entryY=1;entryDx=0;entryDy=0;" parent="1" source="K7loId0zBNw9NE6-Rvp8-88" target="K7loId0zBNw9NE6-Rvp8-90" edge="1">
          <mxGeometry relative="1" as="geometry" />
        </mxCell>
        <mxCell id="K7loId0zBNw9NE6-Rvp8-88" value="row_idx == N-O-1" style="rhombus;whiteSpace=wrap;html=1;" parent="1" vertex="1">
          <mxGeometry x="1163" y="270" width="125" height="120" as="geometry" />
        </mxCell>
        <mxCell id="K7loId0zBNw9NE6-Rvp8-100" style="edgeStyle=orthogonalEdgeStyle;rounded=0;orthogonalLoop=1;jettySize=auto;html=1;entryX=1;entryY=0.25;entryDx=0;entryDy=0;" parent="1" source="K7loId0zBNw9NE6-Rvp8-89" target="K7loId0zBNw9NE6-Rvp8-1" edge="1">
          <mxGeometry relative="1" as="geometry">
            <Array as="points">
              <mxPoint x="1225" y="95" />
            </Array>
          </mxGeometry>
        </mxCell>
        <mxCell id="K7loId0zBNw9NE6-Rvp8-89" value="col_idx = N-O&lt;br&gt;row_idx = N-O" style="ellipse;whiteSpace=wrap;html=1;" parent="1" vertex="1">
          <mxGeometry x="1165" y="150" width="120" height="80" as="geometry" />
        </mxCell>
        <mxCell id="K7loId0zBNw9NE6-Rvp8-101" style="edgeStyle=orthogonalEdgeStyle;rounded=0;orthogonalLoop=1;jettySize=auto;html=1;entryX=1;entryY=0.25;entryDx=0;entryDy=0;" parent="1" source="K7loId0zBNw9NE6-Rvp8-90" target="K7loId0zBNw9NE6-Rvp8-1" edge="1">
          <mxGeometry relative="1" as="geometry">
            <Array as="points">
              <mxPoint x="1090" y="95" />
            </Array>
          </mxGeometry>
        </mxCell>
        <mxCell id="K7loId0zBNw9NE6-Rvp8-90" value="col_idx=N-O&lt;br&gt;row_idx++" style="ellipse;whiteSpace=wrap;html=1;" parent="1" vertex="1">
          <mxGeometry x="1030" y="210" width="120" height="80" as="geometry" />
        </mxCell>
        <mxCell id="K7loId0zBNw9NE6-Rvp8-99" style="edgeStyle=orthogonalEdgeStyle;rounded=0;orthogonalLoop=1;jettySize=auto;html=1;entryX=1;entryY=0.25;entryDx=0;entryDy=0;" parent="1" source="K7loId0zBNw9NE6-Rvp8-91" target="K7loId0zBNw9NE6-Rvp8-1" edge="1">
          <mxGeometry relative="1" as="geometry">
            <Array as="points">
              <mxPoint x="1010" y="95" />
            </Array>
          </mxGeometry>
        </mxCell>
        <mxCell id="K7loId0zBNw9NE6-Rvp8-91" value="col_idx++" style="ellipse;whiteSpace=wrap;html=1;" parent="1" vertex="1">
          <mxGeometry x="950" y="410" width="120" height="80" as="geometry" />
        </mxCell>
        <mxCell id="K7loId0zBNw9NE6-Rvp8-92" value="0" style="text;html=1;align=center;verticalAlign=middle;resizable=0;points=[];autosize=1;strokeColor=none;fillColor=none;" parent="1" vertex="1">
          <mxGeometry x="1225" y="580" width="30" height="30" as="geometry" />
        </mxCell>
        <mxCell id="K7loId0zBNw9NE6-Rvp8-93" value="0" style="text;html=1;align=center;verticalAlign=middle;resizable=0;points=[];autosize=1;strokeColor=none;fillColor=none;" parent="1" vertex="1">
          <mxGeometry x="1135" y="480" width="30" height="30" as="geometry" />
        </mxCell>
        <mxCell id="K7loId0zBNw9NE6-Rvp8-94" value="0" style="text;html=1;align=center;verticalAlign=middle;resizable=0;points=[];autosize=1;strokeColor=none;fillColor=none;" parent="1" vertex="1">
          <mxGeometry x="1130" y="300" width="30" height="30" as="geometry" />
        </mxCell>
        <mxCell id="K7loId0zBNw9NE6-Rvp8-95" value="1" style="text;html=1;align=center;verticalAlign=middle;resizable=0;points=[];autosize=1;strokeColor=none;fillColor=none;" parent="1" vertex="1">
          <mxGeometry x="1225" y="420" width="30" height="30" as="geometry" />
        </mxCell>
        <mxCell id="K7loId0zBNw9NE6-Rvp8-96" value="1" style="text;html=1;align=center;verticalAlign=middle;resizable=0;points=[];autosize=1;strokeColor=none;fillColor=none;" parent="1" vertex="1">
          <mxGeometry x="1225" y="240" width="30" height="30" as="geometry" />
        </mxCell>
        <mxCell id="K7loId0zBNw9NE6-Rvp8-102" style="edgeStyle=orthogonalEdgeStyle;rounded=0;orthogonalLoop=1;jettySize=auto;html=1;entryX=0.5;entryY=1;entryDx=0;entryDy=0;" parent="1" source="K7loId0zBNw9NE6-Rvp8-103" target="K7loId0zBNw9NE6-Rvp8-107" edge="1">
          <mxGeometry relative="1" as="geometry" />
        </mxCell>
        <mxCell id="K7loId0zBNw9NE6-Rvp8-120" style="edgeStyle=orthogonalEdgeStyle;rounded=0;orthogonalLoop=1;jettySize=auto;html=1;entryX=1;entryY=0.25;entryDx=0;entryDy=0;" parent="1" source="K7loId0zBNw9NE6-Rvp8-103" target="K7loId0zBNw9NE6-Rvp8-1" edge="1">
          <mxGeometry relative="1" as="geometry">
            <Array as="points">
              <mxPoint x="1310" y="650" />
              <mxPoint x="1310" y="95" />
            </Array>
          </mxGeometry>
        </mxCell>
        <mxCell id="K7loId0zBNw9NE6-Rvp8-103" value="storage_wr_done" style="rhombus;whiteSpace=wrap;html=1;" parent="1" vertex="1">
          <mxGeometry x="1573" y="590" width="125" height="120" as="geometry" />
        </mxCell>
        <mxCell id="K7loId0zBNw9NE6-Rvp8-104" value="1" style="text;html=1;align=center;verticalAlign=middle;resizable=0;points=[];autosize=1;strokeColor=none;fillColor=none;" parent="1" vertex="1">
          <mxGeometry x="1560" y="610" width="30" height="30" as="geometry" />
        </mxCell>
        <mxCell id="K7loId0zBNw9NE6-Rvp8-105" style="edgeStyle=orthogonalEdgeStyle;rounded=0;orthogonalLoop=1;jettySize=auto;html=1;entryX=0.5;entryY=1;entryDx=0;entryDy=0;" parent="1" source="K7loId0zBNw9NE6-Rvp8-107" target="K7loId0zBNw9NE6-Rvp8-113" edge="1">
          <mxGeometry relative="1" as="geometry" />
        </mxCell>
        <mxCell id="K7loId0zBNw9NE6-Rvp8-106" style="edgeStyle=orthogonalEdgeStyle;rounded=0;orthogonalLoop=1;jettySize=auto;html=1;entryX=0.5;entryY=1;entryDx=0;entryDy=0;" parent="1" source="K7loId0zBNw9NE6-Rvp8-107" target="K7loId0zBNw9NE6-Rvp8-110" edge="1">
          <mxGeometry relative="1" as="geometry" />
        </mxCell>
        <mxCell id="K7loId0zBNw9NE6-Rvp8-107" value="col_idx == N-1" style="rhombus;whiteSpace=wrap;html=1;" parent="1" vertex="1">
          <mxGeometry x="1573" y="440" width="125" height="120" as="geometry" />
        </mxCell>
        <mxCell id="K7loId0zBNw9NE6-Rvp8-108" style="edgeStyle=orthogonalEdgeStyle;rounded=0;orthogonalLoop=1;jettySize=auto;html=1;entryX=0.5;entryY=1;entryDx=0;entryDy=0;" parent="1" source="K7loId0zBNw9NE6-Rvp8-110" target="K7loId0zBNw9NE6-Rvp8-111" edge="1">
          <mxGeometry relative="1" as="geometry" />
        </mxCell>
        <mxCell id="K7loId0zBNw9NE6-Rvp8-109" style="edgeStyle=orthogonalEdgeStyle;rounded=0;orthogonalLoop=1;jettySize=auto;html=1;entryX=0.5;entryY=1;entryDx=0;entryDy=0;" parent="1" source="K7loId0zBNw9NE6-Rvp8-110" target="K7loId0zBNw9NE6-Rvp8-112" edge="1">
          <mxGeometry relative="1" as="geometry" />
        </mxCell>
        <mxCell id="K7loId0zBNw9NE6-Rvp8-110" value="row_idx == N-1" style="rhombus;whiteSpace=wrap;html=1;" parent="1" vertex="1">
          <mxGeometry x="1573" y="260" width="125" height="120" as="geometry" />
        </mxCell>
        <mxCell id="K7loId0zBNw9NE6-Rvp8-126" style="edgeStyle=orthogonalEdgeStyle;rounded=0;orthogonalLoop=1;jettySize=auto;html=1;entryX=1;entryY=0.25;entryDx=0;entryDy=0;" parent="1" source="K7loId0zBNw9NE6-Rvp8-111" target="K7loId0zBNw9NE6-Rvp8-1" edge="1">
          <mxGeometry relative="1" as="geometry">
            <Array as="points">
              <mxPoint x="1635" y="95" />
            </Array>
          </mxGeometry>
        </mxCell>
        <mxCell id="K7loId0zBNw9NE6-Rvp8-111" value="col_idx = 0&lt;br&gt;row_idx = 0&lt;br&gt;done" style="ellipse;whiteSpace=wrap;html=1;" parent="1" vertex="1">
          <mxGeometry x="1575" y="160" width="120" height="80" as="geometry" />
        </mxCell>
        <mxCell id="K7loId0zBNw9NE6-Rvp8-122" style="edgeStyle=orthogonalEdgeStyle;rounded=0;orthogonalLoop=1;jettySize=auto;html=1;" parent="1" edge="1">
          <mxGeometry relative="1" as="geometry">
            <mxPoint x="440" y="95" as="targetPoint" />
            <mxPoint x="1500.0000000000002" y="205" as="sourcePoint" />
            <Array as="points">
              <mxPoint x="1500" y="95" />
            </Array>
          </mxGeometry>
        </mxCell>
        <mxCell id="K7loId0zBNw9NE6-Rvp8-112" value="col_idx=row_idx+1&lt;br style=&quot;border-color: var(--border-color);&quot;&gt;row_idx=row_idx+1" style="ellipse;whiteSpace=wrap;html=1;" parent="1" vertex="1">
          <mxGeometry x="1440" y="200" width="120" height="80" as="geometry" />
        </mxCell>
        <mxCell id="K7loId0zBNw9NE6-Rvp8-121" style="edgeStyle=orthogonalEdgeStyle;rounded=0;orthogonalLoop=1;jettySize=auto;html=1;entryX=1;entryY=0.25;entryDx=0;entryDy=0;" parent="1" source="K7loId0zBNw9NE6-Rvp8-113" target="K7loId0zBNw9NE6-Rvp8-1" edge="1">
          <mxGeometry relative="1" as="geometry">
            <Array as="points">
              <mxPoint x="1420" y="95" />
            </Array>
          </mxGeometry>
        </mxCell>
        <mxCell id="K7loId0zBNw9NE6-Rvp8-113" value="col_idx++" style="ellipse;whiteSpace=wrap;html=1;" parent="1" vertex="1">
          <mxGeometry x="1360" y="400" width="120" height="80" as="geometry" />
        </mxCell>
        <mxCell id="K7loId0zBNw9NE6-Rvp8-114" value="0" style="text;html=1;align=center;verticalAlign=middle;resizable=0;points=[];autosize=1;strokeColor=none;fillColor=none;" parent="1" vertex="1">
          <mxGeometry x="1635" y="570" width="30" height="30" as="geometry" />
        </mxCell>
        <mxCell id="K7loId0zBNw9NE6-Rvp8-115" value="0" style="text;html=1;align=center;verticalAlign=middle;resizable=0;points=[];autosize=1;strokeColor=none;fillColor=none;" parent="1" vertex="1">
          <mxGeometry x="1545" y="470" width="30" height="30" as="geometry" />
        </mxCell>
        <mxCell id="K7loId0zBNw9NE6-Rvp8-116" value="0" style="text;html=1;align=center;verticalAlign=middle;resizable=0;points=[];autosize=1;strokeColor=none;fillColor=none;" parent="1" vertex="1">
          <mxGeometry x="1540" y="290" width="30" height="30" as="geometry" />
        </mxCell>
        <mxCell id="K7loId0zBNw9NE6-Rvp8-117" value="1" style="text;html=1;align=center;verticalAlign=middle;resizable=0;points=[];autosize=1;strokeColor=none;fillColor=none;" parent="1" vertex="1">
          <mxGeometry x="1635" y="410" width="30" height="30" as="geometry" />
        </mxCell>
        <mxCell id="K7loId0zBNw9NE6-Rvp8-118" value="1" style="text;html=1;align=center;verticalAlign=middle;resizable=0;points=[];autosize=1;strokeColor=none;fillColor=none;" parent="1" vertex="1">
          <mxGeometry x="1635" y="235" width="30" height="30" as="geometry" />
        </mxCell>
      </root>
    </mxGraphModel>
  </diagram>
</mxfile>
